<?xml version="1.0" encoding="utf-8"?>
<!-- Generator: Adobe Illustrator 22.1.0, SVG Export Plug-In . SVG Version: 6.00 Build 0)  -->
<svg version="1.1" id="Layer_1" xmlns="http://www.w3.org/2000/svg" xmlns:xlink="http://www.w3.org/1999/xlink" x="0px" y="0px"
	 viewBox="0 0 44.9 37" style="enable-background:new 0 0 44.9 37;" xml:space="preserve">
<style type="text/css">
	.st0{fill:#85D2F0;}
	.st1{fill:none;stroke:#2D2D2D;stroke-width:0.75;stroke-linecap:round;stroke-linejoin:round;stroke-miterlimit:10;}
</style>
<path class="st0" d="M22.4,36.1L22.4,36.1c-0.7,0-1.3-0.6-1.3-1.3v-32c0-0.7,0.6-1.3,1.3-1.3h0c0.7,0,1.3,0.6,1.3,1.3v32
	C23.8,35.5,23.2,36.1,22.4,36.1z"/>
<path class="st0" d="M29.9,14.8L29.9,14.8c-0.7-0.2-1.1-1-0.9-1.7L30.9,7c0.2-0.7,1-1.1,1.7-0.9l0,0c0.7,0.2,1.1,1,0.9,1.7l-1.9,6.1
	C31.3,14.6,30.6,15,29.9,14.8z"/>
<path class="st0" d="M29.9,13.5L29.9,13.5c0.2-0.7,1-1.1,1.7-0.9l6.1,1.9c0.7,0.2,1.1,1,0.9,1.7v0c-0.2,0.7-1,1.1-1.7,0.9l-6.1-1.9
	C30.1,15,29.7,14.2,29.9,13.5z"/>
<path class="st0" d="M7.4,9.8L7.4,9.8c0.4-0.6,1.2-0.9,1.8-0.5l27.7,16c0.6,0.4,0.9,1.2,0.5,1.8v0c-0.4,0.6-1.2,0.9-1.8,0.5
	l-27.7-16C7.2,11.3,7,10.5,7.4,9.8z"/>
<path class="st0" d="M7.4,27.4L7.4,27.4c-0.4-0.6-0.2-1.5,0.5-1.8l27.7-16c0.6-0.4,1.5-0.2,1.8,0.5v0c0.4,0.6,0.2,1.5-0.5,1.8
	l-27.7,16C8.6,28.2,7.8,28,7.4,27.4z"/>
<path class="st0" d="M21.8,10.2L21.8,10.2c-0.5-0.5-0.5-1.4,0-1.9l4.5-4.5c0.5-0.5,1.4-0.5,1.9,0l0,0c0.5,0.5,0.5,1.4,0,1.9
	l-4.5,4.5C23.2,10.7,22.3,10.7,21.8,10.2z"/>
<path class="st0" d="M16.5,3.6L16.5,3.6C17,3,17.9,3,18.4,3.5l4.7,4.4c0.5,0.5,0.6,1.4,0.1,1.9l0,0c-0.5,0.5-1.4,0.6-1.9,0.1
	l-4.7-4.4C16.1,5,16,4.1,16.5,3.6z"/>
<path class="st0" d="M15,14.8L15,14.8c0.7-0.2,1.1-1,0.9-1.7L14,7c-0.2-0.7-1-1.1-1.7-0.9l0,0c-0.7,0.2-1.1,1-0.9,1.7l1.9,6.1
	C13.5,14.6,14.3,15,15,14.8z"/>
<path class="st0" d="M14.9,13.5L14.9,13.5c-0.2-0.7-1-1.1-1.7-0.9l-6.1,1.9c-0.7,0.2-1.1,1-0.9,1.7l0,0c0.2,0.7,1,1.1,1.7,0.9
	l6.1-1.9C14.8,15,15.2,14.2,14.9,13.5z"/>
<path class="st0" d="M21.8,27L21.8,27c-0.5,0.5-0.5,1.4,0,1.9l4.5,4.5c0.5,0.5,1.4,0.5,1.9,0l0,0c0.5-0.5,0.5-1.4,0-1.9L23.7,27
	C23.2,26.5,22.4,26.5,21.8,27z"/>
<path class="st0" d="M16.6,33.6L16.6,33.6c0.5,0.5,1.4,0.6,1.9,0.1l4.7-4.4c0.5-0.5,0.6-1.4,0.1-1.9l0,0c-0.5-0.5-1.4-0.6-1.9-0.1
	l-4.7,4.4C16.1,32.2,16.1,33.1,16.6,33.6z"/>
<path class="st0" d="M29.9,22.4L29.9,22.4c-0.7,0.2-1.1,1-0.9,1.7l1.9,6.1c0.2,0.7,1,1.1,1.7,0.9l0,0c0.7-0.2,1.1-1,0.9-1.7
	l-1.9-6.1C31.3,22.6,30.6,22.2,29.9,22.4z"/>
<path class="st0" d="M29.9,23.8L29.9,23.8c0.2,0.7,1,1.1,1.7,0.9l6.1-1.9c0.7-0.2,1.1-1,0.9-1.7l0,0c-0.2-0.7-1-1.1-1.7-0.9
	l-6.1,1.9C30.1,22.3,29.7,23,29.9,23.8z"/>
<path class="st0" d="M14.8,22.2L14.8,22.2c0.7,0.2,1.1,1,0.9,1.7L13.8,30c-0.2,0.7-1,1.1-1.7,0.9h0c-0.7-0.2-1.1-1-0.9-1.7l1.9-6.1
	C13.3,22.4,14.1,22,14.8,22.2z"/>
<path class="st0" d="M14.8,23.5L14.8,23.5c-0.2,0.7-1,1.1-1.7,0.9L7,22.5c-0.7-0.2-1.1-1-0.9-1.7l0,0c0.2-0.7,1-1.1,1.7-0.9l6.1,1.9
	C14.6,22,15,22.8,14.8,23.5z"/>
<path class="st1" d="M18.6,16.4c0,0,0,1.1,1.2,1.1c1.1,0,1.1-1,1.1-1"/>
<path class="st1" d="M24.6,16.4c0,0,0,1.1,1.2,1.1c1.1,0,1.1-1,1.1-1"/>
<path class="st1" d="M22,18.1c0,0,0,0.8,0.9,0.8c0.8,0,0.8-0.7,0.8-0.7"/>
</svg>
