<?xml version="1.0" encoding="utf-8"?>
<!-- Generator: Adobe Illustrator 22.1.0, SVG Export Plug-In . SVG Version: 6.00 Build 0)  -->
<svg version="1.1" id="Layer_1" xmlns="http://www.w3.org/2000/svg" xmlns:xlink="http://www.w3.org/1999/xlink" x="0px" y="0px"
	 viewBox="0 0 44.9 37.7" style="enable-background:new 0 0 44.9 37.7;" xml:space="preserve">
<style type="text/css">
	.st0{fill:#8C8C8C;}
	.st1{fill:none;stroke:#2D2D2D;stroke-width:0.75;stroke-linecap:round;stroke-linejoin:round;stroke-miterlimit:10;}
	.st2{fill:#85D2F0;}
</style>
<path class="st0" d="M10.2,26.3l25.9,0.2c0,0,8.3-1.7,8.2-9.8c0-8.6-7.2-9.6-11.2-9.6c-1.2-2.2-2.6-6.8-10.2-6.8S12.8,6.2,12,9.3
	c-3.7,0.1-8.4,3-8.4,8.6S8.4,26.3,10.2,26.3z"/>
<path class="st1" d="M22.2,6.9c0,0,0,1,1.1,1c1,0,1-0.9,1-0.9"/>
<path class="st1" d="M27.9,6.9c0,0,0,1,1.1,1c1,0,1-0.9,1-0.9"/>
<path class="st1" d="M25.5,8c0,0,0,0.7,0.8,0.7c0.8,0,0.7-0.7,0.7-0.7"/>
<path class="st2" d="M12.4,33.5l-0.1,0c-0.5,0-0.9-0.4-0.9-0.9l0-3.9c0-0.5,0.4-0.9,0.9-0.9l0.1,0c0.5,0,0.9,0.4,0.9,0.9l0,3.9
	C13.3,33.1,12.9,33.5,12.4,33.5z"/>
<path class="st2" d="M17.6,37.7l-0.1,0c-0.5,0-0.9-0.4-0.9-0.9l0-3.9c0-0.5,0.4-0.9,0.9-0.9l0.1,0c0.5,0,0.9,0.4,0.9,0.9l0,3.9
	C18.5,37.3,18.1,37.7,17.6,37.7z"/>
<path class="st2" d="M22.7,33.5l-0.1,0c-0.5,0-0.9-0.4-0.9-0.9l0-3.9c0-0.5,0.4-0.9,0.9-0.9l0.1,0c0.5,0,0.9,0.4,0.9,0.9l0,3.9
	C23.6,33.1,23.2,33.5,22.7,33.5z"/>
<path class="st2" d="M27.9,37.7l-0.1,0c-0.5,0-0.9-0.4-0.9-0.9l0-3.9c0-0.5,0.4-0.9,0.9-0.9l0.1,0c0.5,0,0.9,0.4,0.9,0.9l0,3.9
	C28.8,37.3,28.4,37.7,27.9,37.7z"/>
<path class="st2" d="M33.1,33.4l-0.1,0c-0.5,0-0.9-0.4-0.9-0.9l0-3.9c0-0.5,0.4-0.9,0.9-0.9l0.1,0c0.5,0,0.9,0.4,0.9,0.9l0,3.9
	C34,33,33.6,33.4,33.1,33.4z"/>
</svg>
