<?xml version="1.0" encoding="utf-8"?>
<!-- Generator: Adobe Illustrator 22.1.0, SVG Export Plug-In . SVG Version: 6.00 Build 0)  -->
<svg version="1.1" id="Layer_1" xmlns="http://www.w3.org/2000/svg" xmlns:xlink="http://www.w3.org/1999/xlink" x="0px" y="0px"
	 viewBox="0 0 57 42.4" style="enable-background:new 0 0 57 42.4;" xml:space="preserve">
<style type="text/css">
	.st0{fill:#FDDF51;}
	.st1{fill:#FDCD09;}
	.st2{fill:#FCB701;}
	.st3{fill:#F27D33;}
	.st4{fill:none;stroke:#2D2D2D;stroke-width:0.75;stroke-linecap:round;stroke-linejoin:round;stroke-miterlimit:10;}
	.st5{fill:#FFFFFF;}
</style>
<g>
	<circle class="st0" cx="35.3" cy="21.2" r="20.8"/>
	<circle class="st1" cx="35.3" cy="20.6" r="15.9"/>
	<circle class="st2" cx="35" cy="20.6" r="13.9"/>
	<circle class="st3" cx="35" cy="20.5" r="11.9"/>
	<path class="st4" d="M30.5,15.8c0,0,0,1.1,1.2,1.1c1.2,0,1.1-1,1.1-1"/>
	<path class="st4" d="M36.8,15.8c0,0,0,1.1,1.2,1.1c1.2,0,1.1-1,1.1-1"/>
	<path class="st4" d="M34.2,16.9c0,0,0,0.8,0.9,0.8c0.8,0,0.8-0.7,0.8-0.7"/>
	<path class="st5" d="M7.3,42.1l28.5,0.3c0,0,9.1-1.9,9-10.8C44.9,22.1,37,21,32.5,21c-1.3-2.4-2.8-7.5-11.3-7.5s-11.1,6.5-12,9.9
		C5.2,23.5,0,26.7,0,32.9S5.3,42.1,7.3,42.1z"/>
	<path class="st4" d="M20.5,20.8c0,0,0,1.1,1.2,1.1c1.2,0,1.1-1,1.1-1"/>
	<path class="st4" d="M26.8,20.8c0,0,0,1.1,1.2,1.1c1.2,0,1.1-1,1.1-1"/>
	<path class="st4" d="M24.2,21.9c0,0,0,0.8,0.9,0.8c0.8,0,0.8-0.7,0.8-0.7"/>
</g>
</svg>
