<?xml version="1.0" encoding="utf-8"?>
<!-- Generator: Adobe Illustrator 22.1.0, SVG Export Plug-In . SVG Version: 6.00 Build 0)  -->
<svg version="1.1" id="Layer_1" xmlns="http://www.w3.org/2000/svg" xmlns:xlink="http://www.w3.org/1999/xlink" x="0px" y="0px"
	 viewBox="0 0 44.9 28.9" style="enable-background:new 0 0 44.9 28.9;" xml:space="preserve">
<style type="text/css">
	.st0{fill:#FFFFFF;}
	.st1{fill:none;stroke:#2D2D2D;stroke-width:0.75;stroke-linecap:round;stroke-linejoin:round;stroke-miterlimit:10;}
</style>
<g>
	<path class="st0" d="M7.6,28.3l28,0.3c0,0,9-1.9,8.8-10.6c0-9.3-7.7-10.4-12.1-10.4c-1.3-2.4-2.8-7.3-11-7.3S10.4,6.7,9.5,9.9
		c-4,0.2-9.1,3.2-9.1,9.3S5.7,28.3,7.6,28.3z"/>
	<path class="st1" d="M20.6,7.4c0,0,0,1.1,1.2,1.1c1.1,0,1.1-1,1.1-1"/>
	<path class="st1" d="M26.7,7.4c0,0,0,1.1,1.2,1.1c1.1,0,1.1-1,1.1-1"/>
	<path class="st1" d="M24.1,8.5c0,0,0,0.8,0.9,0.8c0.8,0,0.8-0.7,0.8-0.7"/>
</g>
</svg>
