<?xml version="1.0" encoding="utf-8"?>
<!-- Generator: Adobe Illustrator 22.1.0, SVG Export Plug-In . SVG Version: 6.00 Build 0)  -->
<svg version="1.1" id="Layer_1" xmlns="http://www.w3.org/2000/svg" xmlns:xlink="http://www.w3.org/1999/xlink" x="0px" y="0px"
	 viewBox="0 0 44.9 44.6" style="enable-background:new 0 0 44.9 44.6;" xml:space="preserve">
<style type="text/css">
	.st0{fill:#8C8C8C;}
	.st1{fill:none;stroke:#2D2D2D;stroke-width:0.75;stroke-linecap:round;stroke-linejoin:round;stroke-miterlimit:10;}
	.st2{fill:#FDCD09;}
</style>
<path class="st0" d="M7.8,28l27.6,0.3c0,0,8.8-1.9,8.7-10.4c0-9.2-7.6-10.3-12-10.3c-1.3-2.3-2.7-7.2-10.9-7.2S10.6,6.7,9.7,9.9
	c-4,0.2-8.9,3.2-8.9,9.2S5.9,28,7.8,28z"/>
<path class="st1" d="M20.6,7.4c0,0,0,1.1,1.2,1.1c1.1,0,1.1-1,1.1-1"/>
<path class="st1" d="M26.6,7.4c0,0,0,1.1,1.2,1.1c1.1,0,1.1-1,1.1-1"/>
<path class="st1" d="M24.1,8.5c0,0,0,0.8,0.9,0.8c0.8,0,0.8-0.7,0.8-0.7"/>
<g>
	<path class="st2" d="M21.1,41.4L21.1,41.4c-0.6-0.2-0.9-0.9-0.6-1.4l1.6-4.1c0.2-0.6,0.9-0.9,1.4-0.6h0c0.6,0.2,0.9,0.9,0.6,1.4
		l-1.6,4.1C22.3,41.4,21.7,41.6,21.1,41.4z"/>
	<path class="st2" d="M20,36.1L20,36.1c-0.6-0.2-0.9-0.9-0.6-1.4l1.6-4.1c0.2-0.6,0.9-0.9,1.4-0.6h0c0.6,0.2,0.9,0.9,0.6,1.4
		l-1.6,4.1C21.2,36,20.6,36.3,20,36.1z"/>
	<rect x="20.3" y="34.6" transform="matrix(0.9316 0.3634 -0.3634 0.9316 14.4407 -5.4683)" class="st2" width="3" height="2.1"/>
</g>
</svg>
